<svg width="23" height="36" viewBox="0 0 23 36" fill="none" xmlns="http://www.w3.org/2000/svg">
<g filter="url(#filter0_d_286_3713)">
<path fill-rule="evenodd" clip-rule="evenodd" d="M3 23.5931C3 28.5631 7.03 32.5931 12 32.5931C16.97 32.5931 21 28.5631 21 23.5931C21 18.6221 16.97 14.5931 12 14.5931C7.03 14.5931 3 18.6221 3 23.5931Z" fill="url(#paint0_linear_286_3713)"/>
<path fill-rule="evenodd" clip-rule="evenodd" d="M2 17.015V1L13.591 12.619H6.55L6.399 12.743L2 17.015Z" fill="white"/>
<path fill-rule="evenodd" clip-rule="evenodd" d="M13.4141 23.5931L15.5351 21.4721C15.9261 21.0811 15.9261 20.4481 15.5351 20.0571C15.1451 19.6671 14.5121 19.6671 14.1211 20.0571L12.0001 22.1791L9.87813 20.0571C9.48813 19.6671 8.85513 19.6671 8.46413 20.0571C8.07413 20.4481 8.07413 21.0811 8.46413 21.4721L10.5861 23.5931L8.46413 25.7141C8.07413 26.1051 8.07413 26.7381 8.46413 27.1291C8.85513 27.5191 9.48813 27.5191 9.87813 27.1291L12.0001 25.0071L14.1211 27.1291C14.5121 27.5191 15.1451 27.5191 15.5351 27.1291C15.9261 26.7381 15.9261 26.1051 15.5351 25.7141L13.4141 23.5931Z" fill="#5A5A5A"/>
<path fill-rule="evenodd" clip-rule="evenodd" d="M3 3.4071V14.5951L5.969 11.7291L6.129 11.5901H11.165L3 3.4071Z" fill="black"/>
</g>
<defs>
<filter id="filter0_d_286_3713" x="0" y="0" width="23" height="35.5931" filterUnits="userSpaceOnUse" color-interpolation-filters="sRGB">
<feFlood flood-opacity="0" result="BackgroundImageFix"/>
<feColorMatrix in="SourceAlpha" type="matrix" values="0 0 0 0 0 0 0 0 0 0 0 0 0 0 0 0 0 0 127 0" result="hardAlpha"/>
<feOffset dy="1"/>
<feGaussianBlur stdDeviation="1"/>
<feColorMatrix type="matrix" values="0 0 0 0 0 0 0 0 0 0 0 0 0 0 0 0 0 0 0.4 0"/>
<feBlend mode="normal" in2="BackgroundImageFix" result="effect1_dropShadow_286_3713"/>
<feBlend mode="normal" in="SourceGraphic" in2="effect1_dropShadow_286_3713" result="shape"/>
</filter>
<linearGradient id="paint0_linear_286_3713" x1="12" y1="14.5931" x2="12" y2="32.5931" gradientUnits="userSpaceOnUse">
<stop stop-color="#F0F0F0"/>
<stop offset="1" stop-color="#D5D5D5"/>
</linearGradient>
</defs>
</svg>
