<svg width="20" height="20" viewBox="0 0 20 20" fill="none" xmlns="http://www.w3.org/2000/svg">
<g filter="url(#filter0_d_286_3690)">
<path fill-rule="evenodd" clip-rule="evenodd" d="M5.87765 4.83757C5.13439 5.11387 4.82181 5.65069 4.80129 6.21761C4.78784 6.59097 4.86794 6.9441 5.03243 7.40455C5.00647 7.33187 5.12919 7.69737 5.15359 7.77817C5.20412 7.94736 4.66705 7.71951 4.33982 7.78559C3.97618 7.85673 3.49198 8.16891 3.23975 8.58314C2.94331 9.06857 2.92879 9.62682 3.15739 10.6314C3.28231 11.1787 3.52311 11.6397 3.86816 12.0773C4.02145 12.2717 4.43952 12.7246 4.47123 12.7649L5.31977 13.7056C5.47057 13.8414 5.57772 13.9417 5.89568 14.2436C6.21043 14.5424 6.36038 14.6816 6.49876 14.7996C6.55723 14.8488 6.60661 14.9793 6.62617 15.1732C6.64227 15.3327 6.63667 15.5107 6.61715 15.6822C6.6104 15.7415 6.60389 15.7843 6.60016 15.8047C6.55827 16.0336 6.73286 16.245 6.96558 16.2472C7.18144 16.2491 7.35087 16.2518 7.78775 16.2595C7.88258 16.2612 7.88258 16.2612 7.97768 16.2628C9.14644 16.2828 9.73076 16.2776 10.1558 16.2242C10.6101 16.167 11.0823 15.6132 11.4827 14.9285C11.8256 15.5393 12.3013 16.1343 12.7823 16.2105C12.9333 16.235 13.1177 16.2428 13.3311 16.2381C13.4918 16.2346 13.6618 16.2241 13.8333 16.2088C13.961 16.1974 14.0626 16.1859 14.1233 16.1781C14.3492 16.1487 14.497 15.9264 14.4366 15.7068C14.4236 15.6594 14.4027 15.5723 14.3815 15.4626C14.3569 15.335 14.3392 15.2103 14.3312 15.0967C14.3262 15.0253 14.3252 14.9607 14.3284 14.9048C14.3343 14.8067 14.3362 14.7517 14.3392 14.6236C14.3403 14.5787 14.3403 14.5787 14.3417 14.5391C14.3471 14.4027 14.3651 14.2742 14.4232 13.9945C14.4482 13.8743 14.5705 13.6423 14.7631 13.355C14.8202 13.2698 14.8827 13.1808 14.9496 13.0889C15.0768 12.9142 15.2137 12.7376 15.3507 12.5686C15.4327 12.4674 15.4961 12.3917 15.5315 12.3506C15.8282 11.9268 16.1443 11.2323 16.2606 10.8252C16.3724 10.4337 16.463 9.70018 16.515 9.00829C16.5449 8.6086 16.556 8.28448 16.556 7.77817C16.5561 7.68059 16.5561 7.68059 16.5563 7.60147C16.5567 7.49031 16.5567 7.49031 16.5565 7.39435C16.5556 7.23751 16.5509 7.08112 16.5357 6.69928C16.5044 5.88634 16.0586 5.36016 15.4013 5.25869C14.8421 5.17237 14.3426 5.34057 14.1233 5.57495C14.0478 5.65568 14.127 5.29676 13.9074 4.95178C13.7429 4.69337 13.3142 4.36272 12.9864 4.29823C12.651 4.23287 12.2511 4.24011 11.8847 4.3049C11.5638 4.36233 11.1986 4.64232 11.013 4.95178C10.8888 5.15865 11.0518 4.94586 10.9193 4.71777C10.737 4.40354 10.3117 4.12291 9.90516 4.03977C9.55873 3.96838 9.16334 3.99524 8.80571 4.10316C8.37234 4.23227 7.78775 4.71777 7.85672 5.25869C7.51297 4.71777 6.60645 4.56731 5.87765 4.83757Z" fill="black"/>
</g>
<path fill-rule="evenodd" clip-rule="evenodd" d="M9.75438 4.77445C9.96148 4.8168 10.2016 4.97528 10.2707 5.09436C10.3548 5.239 10.4263 5.4585 10.4812 5.73097C10.5105 5.87667 10.603 6.9435 10.775 7.05467C11.1878 7.10001 11.1878 7.10001 11.3016 6.93103C11.3371 6.85719 11.3371 6.85719 11.3439 6.82812C11.358 6.76802 11.3685 6.70134 11.379 6.61058L11.3876 6.53143L11.388 6.522L11.3913 6.49033C11.4022 6.37608 11.4331 6.05911 11.4452 5.95998C11.4831 5.64808 11.5329 5.4324 11.5846 5.3461C11.6559 5.22727 11.904 5.06336 12.0161 5.0433C12.2966 4.9937 12.6055 4.98811 12.8424 5.03425C12.9508 5.05559 13.2133 5.25804 13.2747 5.3545C13.4038 5.5573 13.5271 6.20339 13.5972 6.8515C13.587 6.89775 13.587 6.89775 13.7612 7.14135C14.3456 7.07457 14.3456 7.07457 14.3316 6.96644C14.3476 6.92788 14.3601 6.8835 14.3776 6.81525C14.42 6.65436 14.4473 6.56321 14.4886 6.45975C14.5175 6.38748 14.5479 6.32584 14.5791 6.27697C14.7001 6.08666 15.0127 5.95758 15.2869 5.9999C15.5812 6.04534 15.7685 6.26644 15.7863 6.7286C15.8012 7.10295 15.8057 7.25252 15.8065 7.39862L15.8061 7.77817C15.8061 8.26648 15.7956 8.57205 15.7671 8.95217C15.719 9.59179 15.6323 10.2941 15.5395 10.6193C15.4448 10.9505 15.1628 11.5701 14.9391 11.8922C14.9229 11.9081 14.8549 11.9892 14.768 12.0964C14.6235 12.2748 14.4788 12.4613 14.3433 12.6475C14.2709 12.7469 14.203 12.8437 14.1402 12.9374C13.8961 13.3014 13.7396 13.5984 13.6889 13.8417C13.623 14.159 13.5996 14.3267 13.5923 14.5093C13.5906 14.5584 13.5906 14.5584 13.5895 14.606C13.5866 14.7255 13.585 14.7732 13.5797 14.8606C13.5745 14.9519 13.5759 15.048 13.5831 15.1493C13.5934 15.2961 13.6889 15.4972 13.6889 15.4972C13.6889 15.4972 13.4568 15.4852 13.3147 15.4883C13.1429 15.4921 12.9999 15.486 12.9009 15.47C12.7569 15.4471 12.3708 14.9642 12.1731 14.5878C11.8708 14.0114 11.137 14.0394 10.8362 14.5484C10.5677 15.0076 10.177 15.4656 10.0622 15.4801C9.68811 15.5271 9.11571 15.5322 7.99055 15.5129C7.89574 15.5113 7.53052 15.5001 7.34455 15.4972C7.15857 15.4943 7.39463 15.3182 7.37241 15.0979C7.33515 14.7286 7.22116 14.4274 6.98364 14.2273C6.86122 14.123 6.71589 13.988 6.41854 13.7058C6.08531 13.3894 5.97618 13.2872 5.84564 13.1725L5.04434 12.2818C5.00478 12.23 4.58621 11.7766 4.45711 11.6129C4.17641 11.257 3.98648 10.8933 3.88867 10.4647C3.69945 9.63323 3.70933 9.25326 3.88011 8.97361C4.01755 8.74791 4.31826 8.55402 4.48607 8.52119C4.65773 8.48654 5.0376 8.5047 5.10787 8.54348C5.20689 8.59749 5.24144 8.61649 5.27166 8.63446C5.30738 8.65571 5.33131 8.67245 5.35349 8.69155C5.38775 8.72106 5.42584 8.76325 5.47769 8.83199C5.5138 8.8802 5.55575 8.93739 5.62007 9.02504C5.68061 9.10671 5.7119 9.14574 5.75376 9.18405C6.03415 9.44067 6.43767 9.21643 6.40428 8.85798C6.39861 8.79711 6.38224 8.73103 6.34969 8.62089C6.30612 8.47068 6.35402 8.56805 6.08967 8.05447C6.00246 7.88505 5.95011 7.76611 5.91538 7.64985L5.88125 7.54766C5.84287 7.43706 5.78567 7.27912 5.75513 7.19567L5.73503 7.141L5.73703 7.149L5.67728 6.97149C5.58496 6.68341 5.54314 6.4579 5.55082 6.24467C5.56123 5.95715 5.7112 5.6996 6.13873 5.54067C6.54016 5.39181 7.21659 5.54184 7.34455 5.81924C7.38774 5.91293 7.43382 6.03123 7.48355 6.17381L7.52286 6.29062C7.57826 6.45821 7.65757 6.70555 7.66146 6.71878C7.68871 6.80223 7.70865 6.85739 7.7309 6.9032C7.73308 6.96622 7.73308 6.96622 8.0852 7.13498C8.50219 6.84343 8.50219 6.84343 8.46539 6.75972C8.4711 6.67198 8.47297 6.58616 8.47504 6.38654C8.47747 6.15251 8.47928 6.05499 8.48499 5.92688C8.49815 5.63133 8.52878 5.41546 8.5779 5.28824C8.6695 5.05022 8.83069 4.8783 9.02114 4.82156C9.26573 4.74775 9.53579 4.7294 9.75438 4.77445ZM10.9679 9.05117C10.7608 9.05213 10.5937 9.22079 10.5947 9.4279L10.6107 12.9009C10.6116 13.108 10.7803 13.2751 10.9874 13.2742C11.1945 13.2732 11.3616 13.1045 11.3607 12.8974L11.3447 9.42444C11.3437 9.21734 11.175 9.05022 10.9679 9.05117ZM13.0013 9.05347C12.7942 9.05347 12.6263 9.22136 12.6263 9.42847V12.8875C12.6263 13.0946 12.7942 13.2625 13.0013 13.2625C13.2084 13.2625 13.3763 13.0946 13.3763 12.8875V9.42847C13.3763 9.22136 13.2084 9.05347 13.0013 9.05347ZM8.98727 9.08278C8.78017 9.08404 8.6133 9.25296 8.61457 9.46007L8.63557 12.8861C8.63684 13.0932 8.80576 13.26 9.01287 13.2588C9.21997 13.2575 9.38683 13.0886 9.38556 12.8815L9.36456 9.45547C9.36329 9.24837 9.19437 9.08151 8.98727 9.08278Z" fill="white"/>
<defs>
<filter id="filter0_d_286_3690" x="1" y="3" width="17.5566" height="16.2736" filterUnits="userSpaceOnUse" color-interpolation-filters="sRGB">
<feFlood flood-opacity="0" result="BackgroundImageFix"/>
<feColorMatrix in="SourceAlpha" type="matrix" values="0 0 0 0 0 0 0 0 0 0 0 0 0 0 0 0 0 0 127 0" result="hardAlpha"/>
<feOffset dy="1"/>
<feGaussianBlur stdDeviation="1"/>
<feColorMatrix type="matrix" values="0 0 0 0 0 0 0 0 0 0 0 0 0 0 0 0 0 0 0.4 0"/>
<feBlend mode="normal" in2="BackgroundImageFix" result="effect1_dropShadow_286_3690"/>
<feBlend mode="normal" in="SourceGraphic" in2="effect1_dropShadow_286_3690" result="shape"/>
</filter>
</defs>
</svg>
