<svg width="24" height="25" viewBox="0 0 24 25" fill="none" xmlns="http://www.w3.org/2000/svg">
<g filter="url(#filter0_d_286_3687)">
<path fill-rule="evenodd" clip-rule="evenodd" d="M7.07469 18.6329C7.27432 18.8104 7.41215 18.938 7.83806 19.3373C8.25522 19.7284 8.45695 19.9132 8.64143 20.0678C8.71836 20.1317 8.78395 20.3028 8.80994 20.557C8.83132 20.7662 8.82388 20.9995 8.79796 21.2243C8.78899 21.3021 8.78035 21.3581 8.77539 21.3849C8.71978 21.6848 8.95138 21.9619 9.26031 21.9649C9.53831 21.9677 9.75252 21.9711 10.3195 21.9811C10.4613 21.9836 10.4613 21.9836 10.6037 21.986C12.1448 22.0122 12.932 22.005 13.4969 21.9349C14.1008 21.86 14.7227 21.1402 15.2603 20.237C15.7158 21.0362 16.3477 21.8166 16.9857 21.9181C17.1884 21.95 17.4336 21.9599 17.7178 21.9535C17.9297 21.9487 18.1539 21.9349 18.3802 21.9149C18.5509 21.8999 18.6869 21.8848 18.7681 21.8744C19.0681 21.836 19.2645 21.5445 19.1843 21.2565C19.167 21.1943 19.1392 21.0802 19.1111 20.9365C19.0786 20.77 19.0551 20.6073 19.0444 20.459C19.0376 20.3651 19.0363 20.28 19.0406 20.2065C19.0481 20.0783 19.0504 20.0065 19.054 19.8406C19.0554 19.7789 19.0554 19.7789 19.0573 19.7249C19.0643 19.548 19.0884 19.3801 19.1663 19.014C19.1997 18.8551 19.3619 18.551 19.6173 18.1747C19.6934 18.0626 19.7766 17.9455 19.8657 17.8247C20.0346 17.5956 20.2165 17.364 20.3984 17.1425C20.5074 17.0097 20.5916 16.9105 20.6385 16.8566C21.032 16.3002 21.4516 15.3893 21.6057 14.8568C21.7537 14.345 21.8721 13.4025 21.9448 12.476C21.9847 11.9505 21.9995 11.5268 21.9995 10.8622C21.9995 10.7457 21.9995 10.7457 21.9997 10.6494C22.0001 10.4917 22.0001 10.4321 21.9996 10.3584C21.9982 10.1571 21.9922 9.95751 21.9725 9.44856C21.9301 8.38187 21.3379 7.69224 20.4651 7.55922C19.7226 7.44605 18.8189 8.05472 18.8189 8.05472C18.8189 8.05472 18.6177 7.36932 18.4819 7.15773C18.2611 6.81773 17.6926 6.38447 17.2581 6.30007C16.8111 6.21441 16.2813 6.22388 15.7947 6.30882C15.3686 6.38408 14.9441 6.75957 14.6986 7.16459C14.523 7.45353 14.6882 7.14927 14.5125 6.85038C14.2694 6.4387 13.7031 6.07005 13.164 5.96124C12.7071 5.86799 12.1837 5.90351 11.7056 6.04375C11.0906 6.22514 10.9927 6.68709 10.9682 6.55483C10.8864 6.1114 10.8788 6.14055 10.8279 5.82422C10.6385 4.65053 10.4265 3.83843 10.1052 3.12978C10.1237 3.17052 9.9875 2.86476 9.93794 2.75933C9.85212 2.57677 9.76645 2.41153 9.67229 2.25261C9.38206 1.76276 9.04945 1.396 8.63213 1.18764C7.90742 0.825426 6.82115 1.00171 6.30627 1.5949C5.79494 2.18441 5.70968 3.17004 5.83845 4.38971C5.88763 4.86326 6.05999 5.72779 6.21628 6.36684C6.27154 6.58865 6.31996 6.79093 6.40877 7.16459C6.42404 7.22816 6.42404 7.22816 6.43944 7.29173C6.50814 7.57454 6.56839 7.80721 6.64031 8.06255C6.63276 8.03593 6.76917 8.51364 6.79822 8.61936C6.80789 8.65465 6.80789 8.65465 6.81746 8.69009C6.87169 8.89169 6.92471 9.10907 7.00753 9.47185C7.05286 9.6713 7.09709 9.88439 7.14036 10.1103C7.25836 10.7264 7.25894 10.5981 7.14535 10.4667C7.06689 10.3759 6.99309 10.2935 6.92179 10.2176C6.78927 10.0764 6.66745 9.95959 6.5518 9.86645C5.70915 9.18598 5.19281 8.88532 4.48393 8.81926C3.32114 8.70901 2.21764 9.51968 2.05171 10.6138C1.94967 11.2846 1.98254 11.5934 2.29696 12.1862C2.46998 12.5065 2.76266 12.8934 3.30874 13.5593C3.34216 13.6 3.34216 13.6 3.37555 13.6406C4.04586 14.4559 4.11888 14.5465 4.27826 14.7743C4.70909 15.3914 5.75789 17.1631 5.94854 17.401L7.07469 18.6329Z" fill="black"/>
</g>
<path fill-rule="evenodd" clip-rule="evenodd" d="M4.15293 13.0114C4.11988 12.9713 4.11988 12.9713 4.08693 12.9312C3.58602 12.3216 3.31134 11.9592 3.18205 11.7203C2.97916 11.3385 2.96812 11.235 3.04124 10.7553C3.12718 10.1897 3.74731 9.735 4.39319 9.79612C4.84009 9.83769 5.23053 10.0646 5.92452 10.6239C5.99966 10.6843 6.09025 10.771 6.19388 10.8812C6.25517 10.9464 6.32018 11.0188 6.39037 11.0999C6.4958 11.2216 6.85111 11.6498 6.79878 11.5875C6.87598 11.679 6.93118 11.7498 6.99424 11.8366C7.11918 12.0123 7.18947 12.1099 7.28466 12.2349C7.24003 12.1762 7.56976 12.6252 7.63958 12.6909C8.00946 13.0387 8.54509 12.7457 8.51154 12.2822C8.50593 12.2048 8.48747 12.1212 8.4489 11.9753C8.29638 10.9039 8.24303 10.56 8.12125 9.92538C8.07601 9.68965 8.02957 9.46635 7.98157 9.25552C7.89613 8.88203 7.84036 8.65381 7.78249 8.43909C7.7722 8.40107 7.7722 8.40107 7.76188 8.36345C7.73133 8.25252 7.59293 7.76877 7.60215 7.80122C7.53398 7.55969 7.47662 7.33858 7.41054 7.06708C7.39552 7.00523 7.39552 7.00523 7.38053 6.94296C7.29225 6.57218 7.24262 6.36521 7.18661 6.1409C7.04059 5.54494 6.8756 4.71901 6.83199 4.29986C6.7318 3.35269 6.80093 2.55495 7.06542 2.25061C7.27194 2.01315 7.85726 1.91835 8.18427 2.08147C8.39813 2.18804 8.61184 2.42324 8.81405 2.76387C8.89058 2.89279 8.96239 3.03102 9.03588 3.18706C9.08039 3.28156 9.21236 3.57728 9.1975 3.54458C9.47674 4.15917 9.66856 4.8928 9.84529 5.98596C9.89759 6.30987 9.96231 6.67682 10.0453 7.12576C10.07 7.25888 10.07 7.25888 10.0947 7.39144C10.4949 9.53021 10.4656 9.36811 10.4713 9.5387C10.4923 10.1609 11.4247 10.1755 11.4658 9.55424C11.4788 9.35721 11.4741 9.18129 11.4511 8.67607C11.4478 8.60459 11.4478 8.60459 11.4447 8.53338C11.4245 8.06791 11.4256 7.80011 11.4536 7.64789C11.5045 7.37033 11.7574 7.05939 11.9904 6.99081C12.3176 6.89503 12.676 6.87076 12.9632 6.92925C13.2381 6.98462 13.5588 7.19307 13.6509 7.34858C13.7618 7.53691 13.8569 7.82382 13.9297 8.17946C13.9886 8.46651 14.0291 8.77445 14.0575 9.10312C14.0664 9.20538 14.0722 9.28439 14.0811 9.4151C14.0849 9.46982 14.0849 9.46982 14.0886 9.51496C14.0908 9.53761 14.0908 9.53761 14.0959 9.57339C14.1 9.59846 14.1 9.59846 14.119 9.66198C14.1286 9.84223 14.1286 9.84223 14.8635 9.90907C15.083 9.64773 15.083 9.64773 15.077 9.6019C15.1129 9.44712 15.135 9.27459 15.1663 8.95041C15.1863 8.73969 15.1964 8.63609 15.2082 8.52864C15.2571 8.08381 15.3191 7.80119 15.3948 7.67695C15.4887 7.52237 15.8194 7.30708 15.9677 7.28094C16.3401 7.21605 16.7491 7.20875 17.0649 7.26915C17.208 7.29688 17.5569 7.56229 17.6395 7.68925C17.8091 7.95286 17.974 8.80273 18.0669 9.64594C18.0523 9.70125 18.0523 9.70125 18.2803 10.0221C19.064 9.93406 19.064 9.93406 19.042 9.79466C19.0627 9.74497 19.0792 9.68753 19.1024 9.5983C19.1585 9.38943 19.1956 9.26815 19.2509 9.13224C19.2892 9.03822 19.3295 8.95783 19.3709 8.89385C19.5311 8.64545 19.9458 8.47669 20.3096 8.53202C20.7003 8.59145 20.9492 8.88076 20.9733 9.4854C20.9926 9.98295 20.9983 10.1742 20.9996 10.362C21.0001 10.4312 21.0001 10.4868 20.9997 10.6433C20.9995 10.7399 20.9995 10.7399 20.9995 10.8577C20.9995 11.4972 20.9856 11.8955 20.9477 12.3931C20.8805 13.2475 20.767 14.1493 20.6442 14.5734C20.5188 15.0058 20.1444 15.8171 19.8479 16.239C19.8269 16.259 19.7366 16.3651 19.6213 16.5053C19.4293 16.7387 19.2373 16.9827 19.0573 17.2263C18.9609 17.3567 18.8705 17.4838 18.7869 17.6068C18.4633 18.0825 18.2558 18.471 18.1886 18.7894C18.1004 19.2033 18.0688 19.4228 18.0594 19.6607C18.0571 19.7281 18.0571 19.7281 18.0556 19.7934C18.0522 19.9478 18.0502 20.0102 18.0436 20.1231C18.0366 20.2417 18.0386 20.3679 18.0482 20.5012C18.062 20.6921 18.0482 20.953 18.0482 20.953C18.0482 20.953 17.8801 20.9376 17.6926 20.9418C17.4636 20.947 17.2731 20.9393 17.1414 20.9186C16.9515 20.8885 16.4386 20.2562 16.176 19.7637C15.7747 19.0098 14.8005 19.0464 14.4012 19.7122C14.041 20.3161 13.5254 20.9117 13.3723 20.9307C12.875 20.9923 12.1048 20.9993 10.6217 20.9742C10.4799 20.9717 10.4799 20.9717 10.3383 20.9693C9.76883 20.9593 9.79071 21.054 9.80237 20.953C9.83566 20.6649 9.83188 20.7189 9.80237 20.4308C9.7529 19.9478 9.60156 19.5539 9.28622 19.2923C9.12309 19.1558 8.92797 18.9774 8.53608 18.6107C8.08835 18.1918 7.94814 18.0623 7.77533 17.9127L6.71147 16.7478C6.59469 16.6007 5.56965 14.8724 5.10169 14.2035C4.91966 13.9438 4.85157 13.8595 4.15293 13.0114ZM16.7773 13.0163V17.5402C16.7773 18.1941 17.7731 18.1941 17.7731 17.5402V13.0163C17.7731 12.3624 16.7773 12.3624 16.7773 13.0163ZM14.0801 13.0156L14.1013 17.5577C14.1044 18.2117 15.1001 18.2071 15.097 17.5532L15.0758 13.0111C15.0727 12.3571 14.077 12.3617 14.0801 13.0156ZM12.4748 17.5323L12.4469 13.0516C12.4428 12.3977 11.4471 12.4037 11.4512 13.0577L11.479 17.5383C11.4831 18.1923 12.4788 18.1862 12.4748 17.5323Z" fill="white"/>
<defs>
<filter id="filter0_d_286_3687" x="0" y="0" width="24" height="25" filterUnits="userSpaceOnUse" color-interpolation-filters="sRGB">
<feFlood flood-opacity="0" result="BackgroundImageFix"/>
<feColorMatrix in="SourceAlpha" type="matrix" values="0 0 0 0 0 0 0 0 0 0 0 0 0 0 0 0 0 0 127 0" result="hardAlpha"/>
<feOffset dy="1"/>
<feGaussianBlur stdDeviation="1"/>
<feColorMatrix type="matrix" values="0 0 0 0 0 0 0 0 0 0 0 0 0 0 0 0 0 0 0.4 0"/>
<feBlend mode="normal" in2="BackgroundImageFix" result="effect1_dropShadow_286_3687"/>
<feBlend mode="normal" in="SourceGraphic" in2="effect1_dropShadow_286_3687" result="shape"/>
</filter>
</defs>
</svg>
