<svg width="20" height="21" viewBox="0 0 20 21" fill="none" xmlns="http://www.w3.org/2000/svg">
<g filter="url(#filter0_d_286_3675)">
<path fill-rule="evenodd" clip-rule="evenodd" d="M11.9624 6.97569H12.9601V7.97342H11.9624V6.97569ZM12.9601 12.9621H11.9624V11.9644H12.9601V12.9621ZM7.97143 7.97342H6.9737V6.97569H7.97143V7.97342ZM7.97143 12.9621H6.9737V11.9644H7.97143V12.9621ZM9.96689 2L2 9.96989L7.21016 15.179L9.96689 17.9358L17.9328 9.96889L9.96689 2Z" fill="white"/>
<path fill-rule="evenodd" clip-rule="evenodd" d="M13.9672 8.98821V7.16336L16.5184 9.96599L13.9662 12.7676L13.9672 10.9637H10.9519V13.9618H12.7528L9.95418 16.532L7.15355 13.9608L8.9774 13.9618V10.9637H5.97533L5.97632 12.7676L3.41016 9.96599L5.97533 7.16336V8.98821H8.96942V5.97695H7.16452L9.96715 3.41278L12.7678 5.97795L10.9649 5.97695V8.98821H13.9672Z" fill="black"/>
</g>
<defs>
<filter id="filter0_d_286_3675" x="0" y="1" width="19.9327" height="19.9358" filterUnits="userSpaceOnUse" color-interpolation-filters="sRGB">
<feFlood flood-opacity="0" result="BackgroundImageFix"/>
<feColorMatrix in="SourceAlpha" type="matrix" values="0 0 0 0 0 0 0 0 0 0 0 0 0 0 0 0 0 0 127 0" result="hardAlpha"/>
<feOffset dy="1"/>
<feGaussianBlur stdDeviation="1"/>
<feColorMatrix type="matrix" values="0 0 0 0 0 0 0 0 0 0 0 0 0 0 0 0 0 0 0.4 0"/>
<feBlend mode="normal" in2="BackgroundImageFix" result="effect1_dropShadow_286_3675"/>
<feBlend mode="normal" in="SourceGraphic" in2="effect1_dropShadow_286_3675" result="shape"/>
</filter>
</defs>
</svg>
