<svg width="20" height="22" viewBox="0 0 20 22" fill="none" xmlns="http://www.w3.org/2000/svg">
<g filter="url(#filter0_d_286_3660)">
<path d="M9.988 1L4.527 6.962H8.005V8H2V8.019V11.961V11.981H8.005V13.039H4.539L10.011 19L15.473 13.039H11.995V11.981H18V8H11.994V6.962H15.461L9.988 1Z" fill="white"/>
</g>
<path d="M16.9607 9.0195H10.9797V5.9805H13.2397L9.98865 2.6615L6.76565 5.9805H9.01965V9.0195H3.03965H3.01965V10.9805H3.03965H9.03965V14.0195H6.75965L10.0107 17.3395L13.2337 14.0195H10.9807V10.9805H16.9607H16.9807V9.0195H16.9607Z" fill="black"/>
<defs>
<filter id="filter0_d_286_3660" x="0" y="0" width="20" height="22" filterUnits="userSpaceOnUse" color-interpolation-filters="sRGB">
<feFlood flood-opacity="0" result="BackgroundImageFix"/>
<feColorMatrix in="SourceAlpha" type="matrix" values="0 0 0 0 0 0 0 0 0 0 0 0 0 0 0 0 0 0 127 0" result="hardAlpha"/>
<feOffset dy="1"/>
<feGaussianBlur stdDeviation="1"/>
<feColorMatrix type="matrix" values="0 0 0 0 0 0 0 0 0 0 0 0 0 0 0 0 0 0 0.4 0"/>
<feBlend mode="normal" in2="BackgroundImageFix" result="effect1_dropShadow_286_3660"/>
<feBlend mode="normal" in="SourceGraphic" in2="effect1_dropShadow_286_3660" result="shape"/>
</filter>
</defs>
</svg>
