<svg width="20" height="21" viewBox="0 0 20 21" fill="none" xmlns="http://www.w3.org/2000/svg">
<g filter="url(#filter0_d_286_3679)">
<path fill-rule="evenodd" clip-rule="evenodd" d="M13.5 8C13.5 11.038 11.038 13.5 8 13.5C4.962 13.5 2.5 11.038 2.5 8C2.5 4.962 4.962 2.5 8 2.5C11.038 2.5 13.5 4.962 13.5 8Z" fill="white"/>
<path fill-rule="evenodd" clip-rule="evenodd" d="M17.9999 16.586L16.5859 18L11.4768 12.8909C10.4959 13.5893 9.29601 14 8 14C4.68586 14 2 11.3141 2 8C2 4.68586 4.68586 2 8 2C11.3141 2 14 4.68586 14 8C14 9.29606 13.5892 10.496 12.8908 11.4769L17.9999 16.586ZM8 3C10.7619 3 13 5.23814 13 8C13 10.7619 10.7619 13 8 13C5.23814 13 3 10.7619 3 8C3 5.23814 5.23814 3 8 3ZM11 7H5V8.98H11V7Z" fill="black"/>
</g>
<defs>
<filter id="filter0_d_286_3679" x="0" y="1" width="19.9999" height="20" filterUnits="userSpaceOnUse" color-interpolation-filters="sRGB">
<feFlood flood-opacity="0" result="BackgroundImageFix"/>
<feColorMatrix in="SourceAlpha" type="matrix" values="0 0 0 0 0 0 0 0 0 0 0 0 0 0 0 0 0 0 127 0" result="hardAlpha"/>
<feOffset dy="1"/>
<feGaussianBlur stdDeviation="1"/>
<feColorMatrix type="matrix" values="0 0 0 0 0 0 0 0 0 0 0 0 0 0 0 0 0 0 0.4 0"/>
<feBlend mode="normal" in2="BackgroundImageFix" result="effect1_dropShadow_286_3679"/>
<feBlend mode="normal" in="SourceGraphic" in2="effect1_dropShadow_286_3679" result="shape"/>
</filter>
</defs>
</svg>
